<svg width="20" height="21" viewBox="0 0 20 21" fill="none" xmlns="http://www.w3.org/2000/svg">
<path d="M17.9526 6.28479C18.3334 7.76978 18.3334 10.8698 18.3334 10.8698C18.3334 10.8698 18.3334 13.9698 17.9526 15.4548C17.7409 16.2756 17.1217 16.9214 16.3376 17.1398C14.9134 17.5364 10.0001 17.5364 10.0001 17.5364C10.0001 17.5364 5.08925 17.5364 3.66258 17.1398C2.87508 16.9181 2.25675 16.2731 2.04758 15.4548C1.66675 13.9698 1.66675 10.8698 1.66675 10.8698C1.66675 10.8698 1.66675 7.76978 2.04758 6.28479C2.25925 5.46396 2.87841 4.81813 3.66258 4.59979C5.08925 4.20313 10.0001 4.20312 10.0001 4.20312C10.0001 4.20312 14.9134 4.20313 16.3376 4.59979C17.1251 4.82146 17.7434 5.46645 17.9526 6.28479ZM8.33342 13.7864L13.3334 10.8698L8.33342 7.95313V13.7864Z" fill="#CCD7E4"/>
</svg>
