<svg width="20" height="21" viewBox="0 0 20 21" fill="none" xmlns="http://www.w3.org/2000/svg">
<path d="M15.2792 16.1526H13.0583V12.6718C13.0583 11.8418 13.0417 10.7734 11.9 10.7734C10.7425 10.7734 10.5658 11.6768 10.5658 12.6109V16.1526H8.34417V8.99512H10.4775V9.97012H10.5067C10.805 9.40845 11.53 8.81429 12.6133 8.81429C14.8633 8.81429 15.28 10.2959 15.28 12.2234L15.2792 16.1526ZM5.83583 8.01595C5.6663 8.01617 5.49838 7.98293 5.34172 7.91813C5.18506 7.85332 5.04272 7.75824 4.92288 7.63832C4.80304 7.5184 4.70804 7.376 4.64334 7.2193C4.57864 7.06259 4.5455 6.89466 4.54583 6.72512C4.546 6.46998 4.62182 6.22062 4.7637 6.00858C4.90558 5.79653 5.10716 5.63131 5.34294 5.53383C5.57872 5.43635 5.83811 5.41097 6.08832 5.4609C6.33852 5.51084 6.5683 5.63385 6.74859 5.81438C6.92888 5.9949 7.0516 6.22484 7.10121 6.4751C7.15082 6.72537 7.12511 6.98473 7.02732 7.22038C6.92953 7.45604 6.76406 7.6574 6.55183 7.79901C6.33959 7.94062 6.09097 8.01612 5.83583 8.01595ZM6.94917 16.1526H4.72167V8.99512H6.95L6.94917 16.1526ZM16.3917 3.37012H3.6075C2.99417 3.37012 2.5 3.85345 2.5 4.45095V17.2893C2.5 17.8868 2.995 18.3701 3.60667 18.3701H16.3883C17 18.3701 17.5 17.8868 17.5 17.2893V4.45095C17.5 3.85345 17 3.37012 16.3883 3.37012H16.3917Z" fill="#CCD7E4"/>
</svg>
