<svg width="20" height="21" viewBox="0 0 20 21" fill="none" xmlns="http://www.w3.org/2000/svg">
<path d="M10.0001 2.53711C5.39592 2.53711 1.66675 6.26628 1.66675 10.8704C1.6658 12.6198 2.21576 14.3251 3.2386 15.7443C4.26143 17.1636 5.7052 18.2247 7.36508 18.7771C7.78175 18.8496 7.93758 18.5996 7.93758 18.3804C7.93758 18.1829 7.92675 17.5271 7.92675 16.8288C5.83342 17.2146 5.29175 16.3188 5.12508 15.8496C5.03092 15.6096 4.62508 14.8704 4.27092 14.6721C3.97925 14.5163 3.56258 14.1304 4.26008 14.1204C4.91675 14.1096 5.38508 14.7246 5.54175 14.9746C6.29175 16.2346 7.49008 15.8804 7.96842 15.6621C8.04175 15.1204 8.26008 14.7563 8.50008 14.5479C6.64592 14.3396 4.70842 13.6204 4.70842 10.4329C4.70842 9.52628 5.03092 8.77711 5.56258 8.19295C5.47925 7.98461 5.18758 7.13045 5.64592 5.98461C5.64592 5.98461 6.34342 5.76628 7.93758 6.83961C8.61597 6.65133 9.31689 6.55657 10.0209 6.55795C10.7292 6.55795 11.4376 6.65128 12.1042 6.83878C13.6976 5.75545 14.3959 5.98545 14.3959 5.98545C14.8542 7.13128 14.5626 7.98545 14.4792 8.19378C15.0101 8.77711 15.3334 9.51628 15.3334 10.4329C15.3334 13.6313 13.3859 14.3396 11.5317 14.5479C11.8334 14.8079 12.0942 15.3079 12.0942 16.0896C12.0942 17.2038 12.0834 18.0996 12.0834 18.3813C12.0834 18.5996 12.2401 18.8596 12.6567 18.7763C14.3109 18.2178 15.7483 17.1546 16.7667 15.7364C17.785 14.3182 18.3329 12.6164 18.3334 10.8704C18.3334 6.26628 14.6042 2.53711 10.0001 2.53711Z" fill="#CCD7E4"/>
</svg>
