<svg width="20" height="21" viewBox="0 0 20 21" fill="none" xmlns="http://www.w3.org/2000/svg">
<path d="M18.4683 5.58388C17.8321 5.86529 17.1574 6.05011 16.4666 6.13221C17.1947 5.69674 17.7397 5.01139 17.9999 4.20388C17.3166 4.61055 16.5674 4.89555 15.7866 5.04971C15.2621 4.48853 14.5669 4.11635 13.809 3.99103C13.0512 3.86572 12.2732 3.99429 11.596 4.35676C10.9187 4.71923 10.3802 5.29528 10.0642 5.99537C9.74812 6.69547 9.67221 7.48036 9.84825 8.22805C8.46251 8.15859 7.10686 7.79848 5.86933 7.1711C4.63179 6.54372 3.54003 5.66309 2.66492 4.58638C2.35516 5.11842 2.19238 5.72324 2.19326 6.33888C2.19326 7.54721 2.80826 8.61472 3.74326 9.23972C3.18993 9.2223 2.64878 9.07287 2.16492 8.80388V8.84721C2.16509 9.65197 2.44356 10.4319 2.95313 11.0547C3.46269 11.6776 4.17199 12.1051 4.96075 12.2647C4.4471 12.4039 3.90851 12.4244 3.38576 12.3247C3.60814 13.0174 4.04159 13.6232 4.62541 14.0573C5.20924 14.4914 5.9142 14.732 6.64159 14.7455C5.91866 15.3133 5.0909 15.733 4.20566 15.9807C3.32041 16.2283 2.39503 16.2991 1.48242 16.1889C3.0755 17.2134 4.93 17.7573 6.82409 17.7555C13.2349 17.7555 16.7408 12.4447 16.7408 7.83888C16.7408 7.68888 16.7366 7.53721 16.7299 7.38888C17.4123 6.89569 18.0013 6.28473 18.4691 5.58471L18.4683 5.58388Z" fill="#CCD7E4"/>
</svg>
