<svg width="19" height="7" viewBox="0 0 19 7" fill="none" xmlns="http://www.w3.org/2000/svg">
<path fill-rule="evenodd" clip-rule="evenodd" d="M14.397 0.977785L6.29201 2.05779C6.02123 2.09492 5.74564 2.074 5.48357 1.99642C5.22149 1.91883 4.97894 1.78635 4.77201 1.60779L3.09501 0.154785L0.325012 0.523786C0.107012 0.552786 0.0190119 0.828786 0.182012 0.969786L5.27001 5.37779C5.53001 5.60279 5.87401 5.70479 6.22001 5.65879L17.676 4.13278C17.898 4.10278 17.983 3.81679 17.81 3.67979L14.397 0.977785ZM18.283 3.07479C18.975 3.62179 18.637 4.76878 17.748 4.88678L6.29201 6.41279L17.749 4.88678C18.637 4.76878 18.975 3.62179 18.283 3.07479Z" fill="#198CFF"/>
</svg>
