<svg width="19" height="8" viewBox="0 0 19 8" fill="none" xmlns="http://www.w3.org/2000/svg">
<path fill-rule="evenodd" clip-rule="evenodd" d="M14.397 1.6228L6.29201 2.7018C6.02123 2.73894 5.74564 2.71802 5.48357 2.64044C5.22149 2.56285 4.97894 2.43037 4.77201 2.2518L3.09501 0.799805L0.325012 1.1688C0.107012 1.1968 0.0190119 1.4738 0.182012 1.6148L5.27001 6.0228C5.53001 6.2478 5.87401 6.3498 6.22001 6.3028L17.676 4.7778C17.898 4.7478 17.983 4.4618 17.81 4.3248L14.397 1.6228ZM18.283 3.7198C18.975 4.2668 18.637 5.4138 17.748 5.5318L6.29201 7.0568L17.749 5.5318C18.637 5.4138 18.975 4.2668 18.283 3.7188V3.7198Z" fill="#389BFF"/>
</svg>
